<svg width="57" height="55" viewBox="0 0 57 55" fill="none" xmlns="http://www.w3.org/2000/svg">
<g clip-path="url(#clip0_1_12864)">
<path d="M29.3578 0.453644C30.2671 0.718437 30.9599 1.4576 31.1654 2.38212L35.3626 21.2697L54.2502 25.467C55.1749 25.6724 55.9141 26.3652 56.1787 27.2745C56.4437 28.1838 56.192 29.1652 55.5221 29.8349L30.4673 54.89C29.84 55.5172 28.9356 55.7807 28.0696 55.5882L7.56988 51.0326C6.58639 50.8142 5.81828 50.046 5.5997 49.0625L1.04426 28.5629C0.851805 27.6969 1.11515 26.7925 1.74249 26.1652L26.7975 1.11018C27.4672 0.440494 28.4485 0.188854 29.3578 0.453644ZM30.3457 22.617L27.1246 8.12235L6.4194 28.8277L9.64041 43.3221L30.3457 22.617ZM13.3101 46.9919L27.8049 50.2129L48.5103 29.5077L34.0154 26.2867L13.3101 46.9919Z" fill="#144443"/>
</g>
<defs>
<clipPath id="clip0_1_12864">
<rect width="56" height="54.3369" fill="white" transform="translate(0.632812)"/>
</clipPath>
</defs>
</svg>
